HIERARCHY
ROOT pelvis
{
  OFFSET 0 100 0
  CHANNELS 6 Xposition Yposition Zposition Zrotation Xrotation Yrotation
  JOINT pelvis_right_femur
  {
    OFFSET -10.78128 -3.44521 -0.5502486
    CHANNELS 3 Zrotation Xrotation Yrotation
    JOINT right_femur_tibia
    {
      OFFSET -0.8047443 -44.0398 -0.1307829
      CHANNELS 3 Zrotation Xrotation Yrotation
      JOINT right_tibia_foot
      {
        OFFSET 3.006224 -47.83518 -5
        CHANNELS 3 Zrotation Xrotation Yrotation
        End Site
        {
          OFFSET 0 -5 15
        }
      }
    }
  }
  JOINT pelvis_left_femur
  {
    OFFSET 10.78128 -3.44521 -0.5502486
    CHANNELS 3 Zrotation Xrotation Yrotation
    JOINT left_femur_tibia
    {
      OFFSET 0.8047443 -44.0398 -0.1307829
      CHANNELS 3 Zrotation Xrotation Yrotation
      JOINT left_tibia_foot
      {
        OFFSET -4.370144 -48.10324 -4.275266
        CHANNELS 3 Zrotation Xrotation Yrotation
        End Site
        {
          OFFSET 0 -5 15
        }
      }
    }
  }
  JOINT pelvis_spine1
  {
    OFFSET 0 6.468898 -3.129235
    CHANNELS 3 Zrotation Xrotation Yrotation
    JOINT spine1
    {
      OFFSET 0 23.15396 4.99043
      CHANNELS 3 Zrotation Xrotation Yrotation
      JOINT spine2
      {
        OFFSET 0 20.79997 -5.064912
        CHANNELS 3 Zrotation Xrotation Yrotation
        JOINT neck
        {
          OFFSET 0 14.38658 9.616178
          CHANNELS 3 Zrotation Xrotation Yrotation
          End Site
          {
            OFFSET 0 20 0
          }
        }
      }
      JOINT right_manubrium
      {
        OFFSET -5.722621 16.35077 3.967754
        CHANNELS 3 Zrotation Xrotation Yrotation
        JOINT right_clavicle
        {
          OFFSET -13.16364 1.694482 -4.693211
          CHANNELS 3 Zrotation Xrotation Yrotation
          JOINT right_humerus
          {
            OFFSET -28.5034 -0.3100689 -2.792744
            CHANNELS 3 Zrotation Xrotation Yrotation
            JOINT right_radius
            {
              OFFSET -25.15693 0.02248979 -1.271978
              CHANNELS 3 Zrotation Xrotation Yrotation
              End Site
              {
                OFFSET -15 0 0
              }
            }
          }
        }
      }
      JOINT left_manubrium
      {
        OFFSET 5.722621 16.35077 3.967754
        CHANNELS 3 Zrotation Xrotation Yrotation
        JOINT left_clavicle
        {
          OFFSET 13.16364 1.694482 -4.693211
          CHANNELS 3 Zrotation Xrotation Yrotation
          JOINT left_humerus
          {
            OFFSET 29.39168 -1.063119 -2.237045
            CHANNELS 3 Zrotation Xrotation Yrotation
            JOINT left_radius
            {
              OFFSET 24.59957 -0.9528479 0.9047498
              CHANNELS 3 Zrotation Xrotation Yrotation
              End Site
              {
                OFFSET 15 -0 -0
              }
            }
          }
        }
      }
    }
  }
}
MOTION
Frames: 13
Frame Time: 0.0416666666667
31.21547 105.3641 237.9454 1.599955 -6.775016 2.062027 1.107167 10.40233 7.182578 2.869195e-06 36.09566 -2.180644e-06 5.136137 -9.801616 -3.355922 -3.106294 -14.55786 -8.824332 -1.202831e-06 20.21917 -1.300879e-06 -5.681782 -10.19485 19.38473 -1.415676 -0.7300711 8.404973 -1.29633 9.960634 -2.934977 2.8711 21.78615 5.040551 1.491556 -17.20225 8.503643 2.183606 -21.11191 10.38992 81.47083 23.23894 -7.7735 -7.867797e-10 -4.146787e-07 24.46809 -23.5716 13.04522 12.00853 4.311719 -14.72294 -2.964585 -93.96559 23.09309 26.22654 4.299133e-07 1.064973e-07 -9.899545 -0.9778123 7.805272 15.801
32.54146 105.8984 244.043 1.873694 -7.344155 2.393561 0.5504605 8.257195 7.140999 2.352378e-06 43.128 -1.899408e-06 4.868132 -8.051171 -4.038118 -4.14644 -11.17992 -9.681099 -1.340351e-06 21.32885 -8.586812e-07 -5.187712 -10.6915 19.14198 -1.809367 -0.7980397 7.809502 -1.367292 10.00765 -3.166234 2.873003 22.13318 5.130718 1.483679 -16.92421 8.634614 2.530358 -20.1856 10.30381 82.10599 23.62859 -8.779884 5.20104e-09 -3.194434e-07 22.83689 -23.03292 12.86337 11.374 4.030313 -14.83491 -3.207906 -92.71598 23.77766 24.50994 3.61411e-07 6.617982e-08 -10.27163 -0.6801683 8.080257 15.47257
33.81789 106.7385 249.8663 2.075358 -8.015654 3.005817 0.1522943 4.682954 6.914965 2.765101e-06 49.77078 -2.338807e-06 4.539397 -7.038646 -5.092936 -4.91456 -7.097784 -10.25629 -1.329475e-06 21.40013 7.2965e-08 -4.870522 -11.65059 18.51698 -2.158054 -0.5751472 6.98012 -1.360881 9.965815 -3.587721 2.883575 22.61408 5.149165 1.29724 -16.5538 8.848198 2.769747 -19.20155 10.17601 83.41047 24.05787 -10.06928 1.542832e-08 -3.982438e-07 21.17535 -22.45087 12.91639 10.7911 3.776445 -15.12399 -3.546434 -91.41447 24.52145 22.25873 5.003394e-07 4.652178e-08 -11.14118 -0.3091812 8.35076 15.14377
34.99901 107.6697 255.1976 2.142042 -8.518723 3.827964 0.1237346 -0.2983071 6.572819 1.669711e-06 53.79701 -1.535351e-06 3.819099 -7.158073 -6.122871 -5.373985 -2.65581 -10.8322 -1.266227e-06 20.68964 8.147712e-07 -4.507164 -12.88772 17.74116 -2.364315 -0.1135858 5.988114 -1.162744 9.830791 -4.161389 2.833176 23.00986 5.148714 1.049995 -16.2539 9.040943 2.971015 -18.2218 10.06713 84.49736 24.60118 -11.50682 1.489855e-07 -1.699463e-07 19.41288 -21.24172 12.94621 9.980963 3.64066 -15.60106 -3.892811 -89.7201 25.29122 19.61157 4.337001e-07 3.383971e-08 -12.50752 0.2263643 8.803881 14.54753
36.10129 108.4838 260.243 2.123763 -8.669065 4.78276 0.2993787 -5.452302 6.022559 1.797696e-06 54.40682 -1.671881e-06 3.100047 -7.449888 -7.005253 -5.507102 1.483259 -11.09884 -1.052736e-06 18.96249 1.484799e-06 -4.367111 -14.37899 16.92986 -2.438012 0.3516139 5.052408 -0.8931414 9.597659 -4.742128 2.806469 23.29704 5.137864 0.8303005 -16.09284 9.221175 2.93491 -17.39498 9.907444 85.69925 24.94076 -12.91708 2.141327e-07 -1.707467e-07 17.85105 -20.29526 12.99433 9.378473 3.774677 -16.22027 -4.174403 -88.26424 25.72112 16.97854 5.364904e-07 3.880216e-08 -14.17052 0.8272149 9.229203 13.8193
37.10606 108.9353 265.0319 2.107017 -8.496143 5.758157 0.5885939 -10.49871 5.434275 1.251491e-06 51.17575 -1.20545e-06 2.403718 -8.112221 -7.619876 -5.459351 5.063412 -11.28455 -6.773236e-07 16.52784 1.71981e-06 -4.115319 -16.07907 16.48843 -2.479259 0.7665404 4.257524 -0.5423827 9.310751 -5.27823 2.773155 23.42104 5.160036 0.7248921 -16.00025 9.320966 2.795233 -16.66853 9.749166 86.39911 25.21509 -14.19618 2.744733e-07 -8.851781e-08 16.36231 -19.41996 12.92354 8.833459 4.208578 -16.9639 -4.352096 -86.71059 25.90891 14.20198 5.167375e-07 5.244318e-08 -16.13478 1.439077 9.655425 12.89761
38.017 108.9451 269.8457 2.056837 -7.992174 6.647904 0.9202346 -15.00061 4.771492 1.30638e-06 44.99047 -1.202013e-06 1.867478 -8.65318 -8.069499 -5.293188 8.380202 -11.24419 -3.767636e-07 14.2511 1.714091e-06 -4.086963 -17.71742 16.16062 -2.474644 0.973667 3.612652 -0.1655934 8.944298 -5.772145 2.788223 23.46322 5.171651 0.7070947 -15.98737 9.372778 2.511277 -15.94785 9.538044 87.14537 25.35034 -15.54171 2.438129e-07 -1.423054e-07 14.84444 -18.88099 12.85117 8.427708 4.879702 -17.80679 -4.396591 -85.39095 25.8141 11.38292 5.502889e-07 5.241496e-08 -18.35884 2.055314 10.01593 11.8933
38.83328 108.4802 274.8599 2.043599 -7.350602 7.386557 1.177142 -18.58283 4.073127 1.654997e-06 37.07473 -1.389337e-06 1.43968 -9.277117 -8.394127 -5.114472 11.21127 -11.03363 -1.419211e-07 12.60273 1.639411e-06 -4.140382 -19.15287 16.04404 -2.507813 0.9913996 3.141139 0.1877882 8.528293 -6.196075 2.847314 23.53398 5.143376 0.7492291 -15.96259 9.362945 2.146927 -15.21291 9.302396 87.92469 25.44415 -16.881 1.149936e-07 -3.191379e-07 13.28082 -18.61716 12.75117 8.095638 5.67083 -18.69192 -4.324834 -84.30232 25.58011 8.546271 6.316572e-07 3.269784e-08 -20.69917 2.660253 10.3648 10.83294
39.50301 107.5609 279.8769 2.069285 -6.814007 7.948554 1.374067 -21.7471 3.449379 5.445345e-07 29.4446 -5.260583e-07 0.7943916 -10.24671 -8.564635 -5.021237 13.69558 -11.03103 -6.368053e-08 11.87029 1.317206e-06 -3.974383 -20.33064 16.15679 -2.585742 1.010694 2.721016 0.5331297 8.130168 -6.54867 2.875212 23.65948 5.121324 0.834653 -15.90269 9.295562 1.896387 -14.42663 9.125062 88.3129 25.69976 -18.12066 9.00495e-08 -1.503345e-07 11.56184 -18.01891 12.4468 7.542026 6.392701 -19.52275 -4.222966 -83.04208 25.44638 5.686066 4.231169e-07 2.39311e-08 -22.9329 3.324791 10.85724 9.641772
40.04918 106.4064 285.0522 2.032312 -6.352046 8.344847 1.525694 -23.82641 2.851287 1.386574e-07 23.37126 -2.321063e-07 0.02332661 -11.07828 -8.751838 -4.93384 15.90858 -10.93515 -2.428669e-07 12.5735 1.235989e-06 -4.145452 -20.82742 15.97394 -2.606416 0.9066649 2.34 0.8054073 7.695468 -6.83686 2.937487 23.87023 4.997092 0.8544384 -15.85263 9.212143 1.643417 -13.61345 8.91414 88.9382 25.94499 -19.26374 6.028311e-09 -1.246573e-07 9.863789 -17.40765 12.16245 6.983411 6.885506 -20.15908 -4.067866 -82.10602 25.35721 3.301592 3.486887e-07 -1.361353e-08 -24.66018 3.992995 11.37053 8.569385
40.50103 105.2517 290.4175 1.89798 -6.060581 8.624014 1.736244 -24.8534 2.485672 -4.297249e-08 19.94381 -1.289244e-07 -0.9032461 -11.70057 -8.98747 -4.817266 17.69174 -10.88279 -6.045077e-07 14.52408 1.323814e-06 -4.551787 -20.55731 15.52649 -2.52322 0.7632757 1.981497 1.01224 7.321546 -7.055209 2.999799 24.07007 4.797187 0.79644 -15.84416 9.120958 1.48655 -12.90587 8.722573 89.54569 26.20545 -20.12526 -6.119897e-08 -1.200098e-07 8.425144 -16.6332 11.93185 6.437665 7.030521 -20.48586 -3.913631 -81.48912 25.37267 1.797181 3.287473e-07 -6.863575e-08 -25.46378 4.560495 11.85532 7.785977
40.95019 104.4419 296.2242 1.665215 -5.979547 8.854104 2.02233 -24.54361 2.457825 8.226576e-07 20.17006 -7.328106e-07 -1.729704 -11.30381 -9.391045 -4.713728 19.28432 -10.8156 -1.124098e-06 18.07147 1.647642e-06 -5.425517 -19.4476 14.7995 -2.308353 0.5001596 1.654062 1.107037 7.072046 -7.186037 3.126915 24.27685 4.532584 0.6758622 -15.91922 9.093347 1.420804 -12.31878 8.528975 90.61361 26.28764 -20.77982 -2.049263e-07 -3.616062e-07 7.335137 -16.06006 11.91016 6.093271 6.809333 -20.43809 -3.775458 -81.69601 25.49651 1.49565 5.37913e-07 -1.618595e-07 -25.00182 4.874228 12.17619 7.569495
41.3956 104.1459 302.2836 1.40096 -6.200876 9.023835 2.56998 -23.26405 2.941895 1.053399e-06 22.3813 -9.278844e-07 -2.652005 -10.68787 -9.742434 -4.554281 19.97888 -10.96834 -1.548357e-06 23.28343 1.780946e-06 -6.172838 -17.67623 14.36301 -1.967699 0.3268119 1.45015 1.167383 7.067759 -7.182065 3.232811 24.37876 4.279576 0.5867084 -16.04095 9.038282 1.544614 -11.96417 8.472067 91.18826 26.35401 -21.01252 -2.319117e-07 -3.897459e-07 6.632086 -15.23756 11.86106 5.700318 6.311499 -20.10015 -3.699585 -82.22108 25.72081 2.234909 5.849297e-07 -2.190627e-07 -23.43646 4.953473 12.44288 7.694865
